<mxfile host="app.diagrams.net" agent="Mozilla/5.0 (Windows NT 10.0; Win64; x64) AppleWebKit/537.36 (KHTML, like Gecko) Chrome/135.0.0.0 Safari/537.36 Edg/135.0.0.0" version="26.2.13" pages="4">
  <diagram name="Simple Factory" id="cjmlEU_gAZvNsrGUzcT8">
    <mxGraphModel dx="1420" dy="786" grid="1" gridSize="10" guides="1" tooltips="1" connect="1" arrows="1" fold="1" page="1" pageScale="1" pageWidth="850" pageHeight="1100" math="0" shadow="0">
      <root>
        <mxCell id="0" />
        <mxCell id="1" parent="0" />
        <mxCell id="SXAyWsIe-Rgr8Huop5yN-3" value="Client" style="swimlane;fontStyle=0;align=center;verticalAlign=top;childLayout=stackLayout;horizontal=1;startSize=26;horizontalStack=0;resizeParent=1;resizeParentMax=0;resizeLast=0;collapsible=1;marginBottom=0;whiteSpace=wrap;html=1;" parent="1" vertex="1">
          <mxGeometry x="20" y="340" width="160" height="52" as="geometry">
            <mxRectangle x="200" y="340" width="100" height="30" as="alternateBounds" />
          </mxGeometry>
        </mxCell>
        <mxCell id="SXAyWsIe-Rgr8Huop5yN-16" style="edgeStyle=orthogonalEdgeStyle;rounded=0;orthogonalLoop=1;jettySize=auto;html=1;entryX=0;entryY=0.5;entryDx=0;entryDy=0;fontStyle=0;exitX=1;exitY=0.5;exitDx=0;exitDy=0;" parent="1" source="SXAyWsIe-Rgr8Huop5yN-7" target="SXAyWsIe-Rgr8Huop5yN-13" edge="1">
          <mxGeometry relative="1" as="geometry">
            <mxPoint x="500" y="366" as="sourcePoint" />
          </mxGeometry>
        </mxCell>
        <mxCell id="SXAyWsIe-Rgr8Huop5yN-24" value="Depends" style="edgeLabel;html=1;align=center;verticalAlign=middle;resizable=0;points=[];" parent="SXAyWsIe-Rgr8Huop5yN-16" vertex="1" connectable="0">
          <mxGeometry x="0.0286" y="3" relative="1" as="geometry">
            <mxPoint as="offset" />
          </mxGeometry>
        </mxCell>
        <mxCell id="SXAyWsIe-Rgr8Huop5yN-7" value="Factory" style="swimlane;fontStyle=0;align=center;verticalAlign=top;childLayout=stackLayout;horizontal=1;startSize=26;horizontalStack=0;resizeParent=1;resizeParentMax=0;resizeLast=0;collapsible=1;marginBottom=0;whiteSpace=wrap;html=1;" parent="1" vertex="1">
          <mxGeometry x="310" y="340" width="160" height="52" as="geometry">
            <mxRectangle x="200" y="340" width="100" height="30" as="alternateBounds" />
          </mxGeometry>
        </mxCell>
        <mxCell id="SXAyWsIe-Rgr8Huop5yN-9" value="1" style="endArrow=open;html=1;endSize=12;startArrow=diamondThin;startSize=14;startFill=0;edgeStyle=orthogonalEdgeStyle;align=left;verticalAlign=bottom;rounded=0;exitX=1;exitY=0.5;exitDx=0;exitDy=0;entryX=0;entryY=0.5;entryDx=0;entryDy=0;fontStyle=0" parent="1" source="SXAyWsIe-Rgr8Huop5yN-3" target="SXAyWsIe-Rgr8Huop5yN-7" edge="1">
          <mxGeometry x="-1" y="3" relative="1" as="geometry">
            <mxPoint x="350" y="410" as="sourcePoint" />
            <mxPoint x="510" y="410" as="targetPoint" />
          </mxGeometry>
        </mxCell>
        <mxCell id="SXAyWsIe-Rgr8Huop5yN-15" value="Aggregation" style="edgeLabel;html=1;align=center;verticalAlign=middle;resizable=0;points=[];fontStyle=0" parent="SXAyWsIe-Rgr8Huop5yN-9" vertex="1" connectable="0">
          <mxGeometry x="0.0615" y="-1" relative="1" as="geometry">
            <mxPoint as="offset" />
          </mxGeometry>
        </mxCell>
        <mxCell id="SXAyWsIe-Rgr8Huop5yN-13" value="&lt;span style=&quot;&quot;&gt;&amp;lt;&amp;lt;Interface&amp;gt;&amp;gt;&lt;/span&gt;&lt;div&gt;&lt;span style=&quot;&quot;&gt;Product&lt;/span&gt;&lt;/div&gt;" style="swimlane;fontStyle=0;align=center;verticalAlign=top;childLayout=stackLayout;horizontal=1;startSize=40;horizontalStack=0;resizeParent=1;resizeParentMax=0;resizeLast=0;collapsible=1;marginBottom=0;whiteSpace=wrap;html=1;" parent="1" vertex="1">
          <mxGeometry x="580" y="331" width="160" height="70" as="geometry">
            <mxRectangle x="200" y="340" width="100" height="30" as="alternateBounds" />
          </mxGeometry>
        </mxCell>
        <mxCell id="SXAyWsIe-Rgr8Huop5yN-17" value="Concrete Product 1" style="swimlane;fontStyle=0;align=center;verticalAlign=top;childLayout=stackLayout;horizontal=1;startSize=26;horizontalStack=0;resizeParent=1;resizeParentMax=0;resizeLast=0;collapsible=1;marginBottom=0;whiteSpace=wrap;html=1;" parent="1" vertex="1">
          <mxGeometry x="480" y="470" width="160" height="52" as="geometry">
            <mxRectangle x="200" y="340" width="100" height="30" as="alternateBounds" />
          </mxGeometry>
        </mxCell>
        <mxCell id="SXAyWsIe-Rgr8Huop5yN-18" value="Concrete Product 2" style="swimlane;fontStyle=0;align=center;verticalAlign=top;childLayout=stackLayout;horizontal=1;startSize=26;horizontalStack=0;resizeParent=1;resizeParentMax=0;resizeLast=0;collapsible=1;marginBottom=0;whiteSpace=wrap;html=1;" parent="1" vertex="1">
          <mxGeometry x="680" y="470" width="160" height="52" as="geometry">
            <mxRectangle x="200" y="340" width="100" height="30" as="alternateBounds" />
          </mxGeometry>
        </mxCell>
        <mxCell id="SXAyWsIe-Rgr8Huop5yN-21" value="" style="endArrow=block;dashed=1;endFill=0;endSize=12;html=1;rounded=0;entryX=0.5;entryY=1;entryDx=0;entryDy=0;exitX=0.5;exitY=0;exitDx=0;exitDy=0;fontStyle=0" parent="1" source="SXAyWsIe-Rgr8Huop5yN-17" target="SXAyWsIe-Rgr8Huop5yN-13" edge="1">
          <mxGeometry width="160" relative="1" as="geometry">
            <mxPoint x="390" y="410" as="sourcePoint" />
            <mxPoint x="550" y="410" as="targetPoint" />
          </mxGeometry>
        </mxCell>
        <mxCell id="SXAyWsIe-Rgr8Huop5yN-22" value="" style="endArrow=block;dashed=1;endFill=0;endSize=12;html=1;rounded=0;exitX=0.5;exitY=0;exitDx=0;exitDy=0;fontStyle=0" parent="1" source="SXAyWsIe-Rgr8Huop5yN-18" edge="1">
          <mxGeometry width="160" relative="1" as="geometry">
            <mxPoint x="570" y="480" as="sourcePoint" />
            <mxPoint x="660" y="400" as="targetPoint" />
          </mxGeometry>
        </mxCell>
      </root>
    </mxGraphModel>
  </diagram>
  <diagram id="l1XIJsYFfWdo0kpSefsM" name="Page-2">
    <mxGraphModel dx="1183" dy="655" grid="1" gridSize="10" guides="1" tooltips="1" connect="1" arrows="1" fold="1" page="1" pageScale="1" pageWidth="850" pageHeight="1100" math="0" shadow="0">
      <root>
        <mxCell id="0" />
        <mxCell id="1" parent="0" />
        <mxCell id="4WmSHUMRDspCkq09ne6b-1" value="Car" style="swimlane;fontStyle=1;align=center;verticalAlign=top;childLayout=stackLayout;horizontal=1;startSize=26;horizontalStack=0;resizeParent=1;resizeParentMax=0;resizeLast=0;collapsible=1;marginBottom=0;whiteSpace=wrap;html=1;" vertex="1" parent="1">
          <mxGeometry x="360" y="300" width="210" height="130" as="geometry" />
        </mxCell>
        <mxCell id="4WmSHUMRDspCkq09ne6b-4" value="+ start(): void&lt;br&gt;&lt;div&gt;+ stop(): void&lt;/div&gt;&lt;div&gt;+ changeTires(tires: List&amp;lt;Tire&amp;gt;): void&amp;nbsp;&lt;/div&gt;&lt;div&gt;+ drive(): void&lt;br&gt;&lt;/div&gt;&lt;div&gt;+ wash(): void&lt;/div&gt;&lt;div&gt;+ checkOil: void&lt;/div&gt;" style="text;strokeColor=none;fillColor=none;align=left;verticalAlign=top;spacingLeft=4;spacingRight=4;overflow=hidden;rotatable=0;points=[[0,0.5],[1,0.5]];portConstraint=eastwest;whiteSpace=wrap;html=1;" vertex="1" parent="4WmSHUMRDspCkq09ne6b-1">
          <mxGeometry y="26" width="210" height="104" as="geometry" />
        </mxCell>
        <mxCell id="4WmSHUMRDspCkq09ne6b-7" value="Car" style="swimlane;fontStyle=1;align=center;verticalAlign=top;childLayout=stackLayout;horizontal=1;startSize=26;horizontalStack=0;resizeParent=1;resizeParentMax=0;resizeLast=0;collapsible=1;marginBottom=0;whiteSpace=wrap;html=1;" vertex="1" parent="1">
          <mxGeometry x="390" y="575" width="210" height="70" as="geometry" />
        </mxCell>
        <mxCell id="4WmSHUMRDspCkq09ne6b-8" value="+ start(): void&lt;br&gt;&lt;div&gt;+ stop(): void&lt;/div&gt;&lt;div&gt;&lt;br&gt;&lt;/div&gt;" style="text;strokeColor=none;fillColor=none;align=left;verticalAlign=top;spacingLeft=4;spacingRight=4;overflow=hidden;rotatable=0;points=[[0,0.5],[1,0.5]];portConstraint=eastwest;whiteSpace=wrap;html=1;" vertex="1" parent="4WmSHUMRDspCkq09ne6b-7">
          <mxGeometry y="26" width="210" height="44" as="geometry" />
        </mxCell>
        <mxCell id="4WmSHUMRDspCkq09ne6b-9" value="Driver" style="swimlane;fontStyle=1;align=center;verticalAlign=top;childLayout=stackLayout;horizontal=1;startSize=26;horizontalStack=0;resizeParent=1;resizeParentMax=0;resizeLast=0;collapsible=1;marginBottom=0;whiteSpace=wrap;html=1;" vertex="1" parent="1">
          <mxGeometry x="80" y="490" width="210" height="60" as="geometry" />
        </mxCell>
        <mxCell id="4WmSHUMRDspCkq09ne6b-10" value="+ drive(a: Car): void" style="text;strokeColor=none;fillColor=none;align=left;verticalAlign=top;spacingLeft=4;spacingRight=4;overflow=hidden;rotatable=0;points=[[0,0.5],[1,0.5]];portConstraint=eastwest;whiteSpace=wrap;html=1;" vertex="1" parent="4WmSHUMRDspCkq09ne6b-9">
          <mxGeometry y="26" width="210" height="34" as="geometry" />
        </mxCell>
        <mxCell id="4WmSHUMRDspCkq09ne6b-14" value="CarWash" style="swimlane;fontStyle=1;align=center;verticalAlign=top;childLayout=stackLayout;horizontal=1;startSize=26;horizontalStack=0;resizeParent=1;resizeParentMax=0;resizeLast=0;collapsible=1;marginBottom=0;whiteSpace=wrap;html=1;" vertex="1" parent="1">
          <mxGeometry x="80" y="580" width="210" height="60" as="geometry" />
        </mxCell>
        <mxCell id="4WmSHUMRDspCkq09ne6b-15" value="&lt;div&gt;+ wash(a: Car): void&lt;/div&gt;" style="text;strokeColor=none;fillColor=none;align=left;verticalAlign=top;spacingLeft=4;spacingRight=4;overflow=hidden;rotatable=0;points=[[0,0.5],[1,0.5]];portConstraint=eastwest;whiteSpace=wrap;html=1;" vertex="1" parent="4WmSHUMRDspCkq09ne6b-14">
          <mxGeometry y="26" width="210" height="34" as="geometry" />
        </mxCell>
        <mxCell id="4WmSHUMRDspCkq09ne6b-17" value="Mechanic" style="swimlane;fontStyle=1;align=center;verticalAlign=top;childLayout=stackLayout;horizontal=1;startSize=26;horizontalStack=0;resizeParent=1;resizeParentMax=0;resizeLast=0;collapsible=1;marginBottom=0;whiteSpace=wrap;html=1;" vertex="1" parent="1">
          <mxGeometry x="80" y="670" width="210" height="60" as="geometry" />
        </mxCell>
        <mxCell id="4WmSHUMRDspCkq09ne6b-18" value="+ changeTires(tires: List&amp;lt;Tire&amp;gt;): void&lt;br&gt;&lt;div&gt;+ checkOil(a: Car) : void&lt;/div&gt;" style="text;strokeColor=none;fillColor=none;align=left;verticalAlign=top;spacingLeft=4;spacingRight=4;overflow=hidden;rotatable=0;points=[[0,0.5],[1,0.5]];portConstraint=eastwest;whiteSpace=wrap;html=1;" vertex="1" parent="4WmSHUMRDspCkq09ne6b-17">
          <mxGeometry y="26" width="210" height="34" as="geometry" />
        </mxCell>
        <mxCell id="4WmSHUMRDspCkq09ne6b-20" style="edgeStyle=orthogonalEdgeStyle;rounded=0;orthogonalLoop=1;jettySize=auto;html=1;entryX=0;entryY=0.5;entryDx=0;entryDy=0;" edge="1" parent="1" source="4WmSHUMRDspCkq09ne6b-15" target="4WmSHUMRDspCkq09ne6b-8">
          <mxGeometry relative="1" as="geometry" />
        </mxCell>
        <mxCell id="4WmSHUMRDspCkq09ne6b-21" style="edgeStyle=orthogonalEdgeStyle;rounded=0;orthogonalLoop=1;jettySize=auto;html=1;entryX=0;entryY=0.5;entryDx=0;entryDy=0;" edge="1" parent="1" source="4WmSHUMRDspCkq09ne6b-18" target="4WmSHUMRDspCkq09ne6b-8">
          <mxGeometry relative="1" as="geometry" />
        </mxCell>
        <mxCell id="4WmSHUMRDspCkq09ne6b-23" style="edgeStyle=orthogonalEdgeStyle;rounded=0;orthogonalLoop=1;jettySize=auto;html=1;entryX=0;entryY=0.5;entryDx=0;entryDy=0;" edge="1" parent="1" source="4WmSHUMRDspCkq09ne6b-10" target="4WmSHUMRDspCkq09ne6b-8">
          <mxGeometry relative="1" as="geometry" />
        </mxCell>
        <mxCell id="4WmSHUMRDspCkq09ne6b-26" value="Employee" style="swimlane;fontStyle=1;align=center;verticalAlign=top;childLayout=stackLayout;horizontal=1;startSize=26;horizontalStack=0;resizeParent=1;resizeParentMax=0;resizeLast=0;collapsible=1;marginBottom=0;whiteSpace=wrap;html=1;" vertex="1" parent="1">
          <mxGeometry x="440" y="710" width="160" height="100" as="geometry" />
        </mxCell>
        <mxCell id="4WmSHUMRDspCkq09ne6b-27" value="- name" style="text;strokeColor=none;fillColor=none;align=left;verticalAlign=top;spacingLeft=4;spacingRight=4;overflow=hidden;rotatable=0;points=[[0,0.5],[1,0.5]];portConstraint=eastwest;whiteSpace=wrap;html=1;" vertex="1" parent="4WmSHUMRDspCkq09ne6b-26">
          <mxGeometry y="26" width="160" height="26" as="geometry" />
        </mxCell>
        <mxCell id="4WmSHUMRDspCkq09ne6b-28" value="" style="line;strokeWidth=1;fillColor=none;align=left;verticalAlign=middle;spacingTop=-1;spacingLeft=3;spacingRight=3;rotatable=0;labelPosition=right;points=[];portConstraint=eastwest;strokeColor=inherit;" vertex="1" parent="4WmSHUMRDspCkq09ne6b-26">
          <mxGeometry y="52" width="160" height="8" as="geometry" />
        </mxCell>
        <mxCell id="4WmSHUMRDspCkq09ne6b-29" value="+ getName()&lt;div&gt;+ printTimesheetReport()&lt;/div&gt;" style="text;strokeColor=none;fillColor=none;align=left;verticalAlign=top;spacingLeft=4;spacingRight=4;overflow=hidden;rotatable=0;points=[[0,0.5],[1,0.5]];portConstraint=eastwest;whiteSpace=wrap;html=1;" vertex="1" parent="4WmSHUMRDspCkq09ne6b-26">
          <mxGeometry y="60" width="160" height="40" as="geometry" />
        </mxCell>
      </root>
    </mxGraphModel>
  </diagram>
  <diagram id="w0ahS8JMcagJjd_ve7M-" name="Composite">
    <mxGraphModel dx="1052" dy="582" grid="1" gridSize="10" guides="1" tooltips="1" connect="1" arrows="1" fold="1" page="1" pageScale="1" pageWidth="850" pageHeight="1100" math="0" shadow="0">
      <root>
        <mxCell id="0" />
        <mxCell id="1" parent="0" />
        <mxCell id="SMZLMbf8MTtVRDUcAiHw-1" value="Component" style="swimlane;fontStyle=1;align=center;verticalAlign=top;childLayout=stackLayout;horizontal=1;startSize=26;horizontalStack=0;resizeParent=1;resizeParentMax=0;resizeLast=0;collapsible=1;marginBottom=0;whiteSpace=wrap;html=1;" vertex="1" parent="1">
          <mxGeometry x="300" y="270" width="210" height="60" as="geometry" />
        </mxCell>
        <mxCell id="SMZLMbf8MTtVRDUcAiHw-2" value="&lt;div&gt;+Operation()&lt;/div&gt;&lt;div&gt;&lt;br&gt;&lt;/div&gt;&lt;div&gt;&lt;br&gt;&lt;/div&gt;" style="text;strokeColor=none;fillColor=none;align=left;verticalAlign=top;spacingLeft=4;spacingRight=4;overflow=hidden;rotatable=0;points=[[0,0.5],[1,0.5]];portConstraint=eastwest;whiteSpace=wrap;html=1;" vertex="1" parent="SMZLMbf8MTtVRDUcAiHw-1">
          <mxGeometry y="26" width="210" height="34" as="geometry" />
        </mxCell>
        <mxCell id="SMZLMbf8MTtVRDUcAiHw-3" value="Client" style="swimlane;fontStyle=1;align=center;verticalAlign=top;childLayout=stackLayout;horizontal=1;startSize=26;horizontalStack=0;resizeParent=1;resizeParentMax=0;resizeLast=0;collapsible=1;marginBottom=0;whiteSpace=wrap;html=1;" vertex="1" parent="1">
          <mxGeometry x="100" y="270" width="100" height="60" as="geometry" />
        </mxCell>
        <mxCell id="SMZLMbf8MTtVRDUcAiHw-5" value="Leaf" style="swimlane;fontStyle=1;align=center;verticalAlign=top;childLayout=stackLayout;horizontal=1;startSize=26;horizontalStack=0;resizeParent=1;resizeParentMax=0;resizeLast=0;collapsible=1;marginBottom=0;whiteSpace=wrap;html=1;" vertex="1" parent="1">
          <mxGeometry x="170" y="480" width="210" height="60" as="geometry" />
        </mxCell>
        <mxCell id="SMZLMbf8MTtVRDUcAiHw-6" value="&lt;div&gt;+Operation()&lt;/div&gt;" style="text;strokeColor=none;fillColor=none;align=left;verticalAlign=top;spacingLeft=4;spacingRight=4;overflow=hidden;rotatable=0;points=[[0,0.5],[1,0.5]];portConstraint=eastwest;whiteSpace=wrap;html=1;" vertex="1" parent="SMZLMbf8MTtVRDUcAiHw-5">
          <mxGeometry y="26" width="210" height="34" as="geometry" />
        </mxCell>
        <mxCell id="SMZLMbf8MTtVRDUcAiHw-17" value="" style="endArrow=block;dashed=1;endFill=0;endSize=12;html=1;rounded=0;exitX=0.5;exitY=0;exitDx=0;exitDy=0;entryX=0.498;entryY=0.982;entryDx=0;entryDy=0;entryPerimeter=0;" edge="1" parent="1" target="SMZLMbf8MTtVRDUcAiHw-2">
          <mxGeometry width="160" relative="1" as="geometry">
            <mxPoint x="275" y="481.04" as="sourcePoint" />
            <mxPoint x="402.98" y="370.004" as="targetPoint" />
          </mxGeometry>
        </mxCell>
        <mxCell id="s-4GiLeWmuKYi__0wbNh-1" value="Composite" style="swimlane;fontStyle=1;align=center;verticalAlign=top;childLayout=stackLayout;horizontal=1;startSize=26;horizontalStack=0;resizeParent=1;resizeParentMax=0;resizeLast=0;collapsible=1;marginBottom=0;whiteSpace=wrap;html=1;" vertex="1" parent="1">
          <mxGeometry x="460" y="480" width="160" height="130" as="geometry" />
        </mxCell>
        <mxCell id="s-4GiLeWmuKYi__0wbNh-2" value="-children: Component[]" style="text;strokeColor=none;fillColor=none;align=left;verticalAlign=top;spacingLeft=4;spacingRight=4;overflow=hidden;rotatable=0;points=[[0,0.5],[1,0.5]];portConstraint=eastwest;whiteSpace=wrap;html=1;" vertex="1" parent="s-4GiLeWmuKYi__0wbNh-1">
          <mxGeometry y="26" width="160" height="26" as="geometry" />
        </mxCell>
        <mxCell id="s-4GiLeWmuKYi__0wbNh-3" value="" style="line;strokeWidth=1;fillColor=none;align=left;verticalAlign=middle;spacingTop=-1;spacingLeft=3;spacingRight=3;rotatable=0;labelPosition=right;points=[];portConstraint=eastwest;strokeColor=inherit;" vertex="1" parent="s-4GiLeWmuKYi__0wbNh-1">
          <mxGeometry y="52" width="160" height="8" as="geometry" />
        </mxCell>
        <mxCell id="s-4GiLeWmuKYi__0wbNh-4" value="&lt;div&gt;+Operation()&lt;/div&gt;&lt;div&gt;+Add(Component)&lt;/div&gt;&lt;div&gt;+Remove(Component)&lt;/div&gt;&lt;div&gt;+GetChild() : Component[]&lt;/div&gt;&lt;div&gt;&lt;br&gt;&lt;/div&gt;" style="text;strokeColor=none;fillColor=none;align=left;verticalAlign=top;spacingLeft=4;spacingRight=4;overflow=hidden;rotatable=0;points=[[0,0.5],[1,0.5]];portConstraint=eastwest;whiteSpace=wrap;html=1;" vertex="1" parent="s-4GiLeWmuKYi__0wbNh-1">
          <mxGeometry y="60" width="160" height="70" as="geometry" />
        </mxCell>
        <mxCell id="SMZLMbf8MTtVRDUcAiHw-18" value="" style="endArrow=block;dashed=1;endFill=0;endSize=12;html=1;rounded=0;exitX=0.5;exitY=0;exitDx=0;exitDy=0;entryX=0.494;entryY=1.014;entryDx=0;entryDy=0;entryPerimeter=0;" edge="1" parent="1" source="s-4GiLeWmuKYi__0wbNh-1" target="SMZLMbf8MTtVRDUcAiHw-2">
          <mxGeometry width="160" relative="1" as="geometry">
            <mxPoint x="536.64" y="481.63" as="sourcePoint" />
            <mxPoint x="400" y="370.00199999999995" as="targetPoint" />
          </mxGeometry>
        </mxCell>
        <mxCell id="vmJcPRF77zkZ10O_PJie-1" style="edgeStyle=orthogonalEdgeStyle;rounded=0;orthogonalLoop=1;jettySize=auto;html=1;entryX=0;entryY=0.5;entryDx=0;entryDy=0;fontStyle=0;exitX=1;exitY=0.5;exitDx=0;exitDy=0;" edge="1" parent="1" source="SMZLMbf8MTtVRDUcAiHw-3" target="SMZLMbf8MTtVRDUcAiHw-1">
          <mxGeometry relative="1" as="geometry">
            <mxPoint x="470" y="366" as="sourcePoint" />
            <mxPoint x="580" y="366" as="targetPoint" />
          </mxGeometry>
        </mxCell>
        <mxCell id="vmJcPRF77zkZ10O_PJie-2" value="Depends" style="edgeLabel;html=1;align=center;verticalAlign=middle;resizable=0;points=[];" vertex="1" connectable="0" parent="vmJcPRF77zkZ10O_PJie-1">
          <mxGeometry x="0.0286" y="3" relative="1" as="geometry">
            <mxPoint as="offset" />
          </mxGeometry>
        </mxCell>
        <mxCell id="ayXbIatUKpNhek-jVMrS-1" value="1" style="endArrow=open;html=1;endSize=12;startArrow=diamondThin;startSize=14;startFill=0;edgeStyle=orthogonalEdgeStyle;align=left;verticalAlign=bottom;rounded=0;exitX=1;exitY=0.5;exitDx=0;exitDy=0;fontStyle=0;entryX=1;entryY=0.5;entryDx=0;entryDy=0;" edge="1" parent="1" source="s-4GiLeWmuKYi__0wbNh-2" target="SMZLMbf8MTtVRDUcAiHw-2">
          <mxGeometry x="-1" y="3" relative="1" as="geometry">
            <mxPoint x="610" y="410" as="sourcePoint" />
            <mxPoint x="510" y="310" as="targetPoint" />
          </mxGeometry>
        </mxCell>
        <mxCell id="ayXbIatUKpNhek-jVMrS-2" value="Aggregation" style="edgeLabel;html=1;align=center;verticalAlign=middle;resizable=0;points=[];fontStyle=0" vertex="1" connectable="0" parent="ayXbIatUKpNhek-jVMrS-1">
          <mxGeometry x="0.0615" y="-1" relative="1" as="geometry">
            <mxPoint as="offset" />
          </mxGeometry>
        </mxCell>
        <mxCell id="FnDd_VmdXtaVOulnArTb-2" value="&lt;div style=&quot;language:en-CA;line-height:90%;margin-top:10.0pt;margin-bottom:&lt;br/&gt;0pt;margin-left:.25in;text-indent:-.25in;text-align:left;direction:ltr;&lt;br/&gt;unicode-bidi:embed;mso-line-break-override:none;word-break:normal;punctuation-wrap:&lt;br/&gt;hanging&quot;&gt;&lt;font style=&quot;font-size: 18px;&quot;&gt;•&lt;span style=&quot;color: black; font-style: normal;&quot;&gt;Requirement: application that can send notifications by email, text message, Slack&lt;/span&gt;&lt;/font&gt;&lt;/div&gt;&lt;font style=&quot;font-size: 18px;&quot;&gt;&lt;br&gt;&lt;/font&gt;&lt;br&gt;&lt;p style=&quot;language:en-CA;line-height:90%;margin-top:5.0pt;margin-bottom:0pt;&lt;br/&gt;margin-left:.5in;text-indent:0in;text-align:left;direction:ltr;unicode-bidi:&lt;br/&gt;embed;mso-line-break-override:none;word-break:normal;punctuation-wrap:hanging&quot;&gt;&lt;/p&gt;" style="text;whiteSpace=wrap;html=1;" vertex="1" parent="1">
          <mxGeometry x="240" y="780" width="840" height="40" as="geometry" />
        </mxCell>
        <mxCell id="FnDd_VmdXtaVOulnArTb-9" value="&amp;lt;&amp;lt;Interface&amp;gt;&amp;gt;&lt;div&gt;Notifier&lt;br&gt;&lt;div&gt;&lt;br&gt;&lt;/div&gt;&lt;/div&gt;" style="swimlane;fontStyle=1;align=center;verticalAlign=top;childLayout=stackLayout;horizontal=1;startSize=40;horizontalStack=0;resizeParent=1;resizeParentMax=0;resizeLast=0;collapsible=1;marginBottom=0;whiteSpace=wrap;html=1;" vertex="1" parent="1">
          <mxGeometry x="410" y="850" width="210" height="70" as="geometry" />
        </mxCell>
        <mxCell id="FnDd_VmdXtaVOulnArTb-10" value="+send(message: String)" style="text;strokeColor=none;fillColor=none;align=left;verticalAlign=top;spacingLeft=4;spacingRight=4;overflow=hidden;rotatable=0;points=[[0,0.5],[1,0.5]];portConstraint=eastwest;whiteSpace=wrap;html=1;" vertex="1" parent="FnDd_VmdXtaVOulnArTb-9">
          <mxGeometry y="40" width="210" height="30" as="geometry" />
        </mxCell>
        <mxCell id="FnDd_VmdXtaVOulnArTb-11" value="EmailNotifier" style="swimlane;fontStyle=1;align=center;verticalAlign=top;childLayout=stackLayout;horizontal=1;startSize=26;horizontalStack=0;resizeParent=1;resizeParentMax=0;resizeLast=0;collapsible=1;marginBottom=0;whiteSpace=wrap;html=1;" vertex="1" parent="1">
          <mxGeometry x="240" y="970" width="150" height="60" as="geometry" />
        </mxCell>
        <mxCell id="FnDd_VmdXtaVOulnArTb-12" value="+send(message: String)" style="text;strokeColor=none;fillColor=none;align=left;verticalAlign=top;spacingLeft=4;spacingRight=4;overflow=hidden;rotatable=0;points=[[0,0.5],[1,0.5]];portConstraint=eastwest;whiteSpace=wrap;html=1;" vertex="1" parent="FnDd_VmdXtaVOulnArTb-11">
          <mxGeometry y="26" width="150" height="34" as="geometry" />
        </mxCell>
        <mxCell id="FnDd_VmdXtaVOulnArTb-13" value="TextNotifier" style="swimlane;fontStyle=1;align=center;verticalAlign=top;childLayout=stackLayout;horizontal=1;startSize=26;horizontalStack=0;resizeParent=1;resizeParentMax=0;resizeLast=0;collapsible=1;marginBottom=0;whiteSpace=wrap;html=1;" vertex="1" parent="1">
          <mxGeometry x="440" y="970" width="150" height="60" as="geometry" />
        </mxCell>
        <mxCell id="FnDd_VmdXtaVOulnArTb-14" value="+send(message: String)" style="text;strokeColor=none;fillColor=none;align=left;verticalAlign=top;spacingLeft=4;spacingRight=4;overflow=hidden;rotatable=0;points=[[0,0.5],[1,0.5]];portConstraint=eastwest;whiteSpace=wrap;html=1;" vertex="1" parent="FnDd_VmdXtaVOulnArTb-13">
          <mxGeometry y="26" width="150" height="34" as="geometry" />
        </mxCell>
        <mxCell id="FnDd_VmdXtaVOulnArTb-15" value="SlackNotifier" style="swimlane;fontStyle=1;align=center;verticalAlign=top;childLayout=stackLayout;horizontal=1;startSize=26;horizontalStack=0;resizeParent=1;resizeParentMax=0;resizeLast=0;collapsible=1;marginBottom=0;whiteSpace=wrap;html=1;" vertex="1" parent="1">
          <mxGeometry x="640" y="970" width="150" height="60" as="geometry" />
        </mxCell>
        <mxCell id="FnDd_VmdXtaVOulnArTb-16" value="+send(message: String)" style="text;strokeColor=none;fillColor=none;align=left;verticalAlign=top;spacingLeft=4;spacingRight=4;overflow=hidden;rotatable=0;points=[[0,0.5],[1,0.5]];portConstraint=eastwest;whiteSpace=wrap;html=1;" vertex="1" parent="FnDd_VmdXtaVOulnArTb-15">
          <mxGeometry y="26" width="150" height="34" as="geometry" />
        </mxCell>
        <mxCell id="FnDd_VmdXtaVOulnArTb-17" value="" style="endArrow=block;dashed=1;endFill=0;endSize=12;html=1;rounded=0;exitX=0.5;exitY=0;exitDx=0;exitDy=0;entryX=0.51;entryY=1.067;entryDx=0;entryDy=0;entryPerimeter=0;" edge="1" parent="1" source="FnDd_VmdXtaVOulnArTb-11" target="FnDd_VmdXtaVOulnArTb-10">
          <mxGeometry width="160" relative="1" as="geometry">
            <mxPoint x="380" y="892.04" as="sourcePoint" />
            <mxPoint x="510" y="740" as="targetPoint" />
          </mxGeometry>
        </mxCell>
        <mxCell id="FnDd_VmdXtaVOulnArTb-27" value="implements" style="edgeLabel;html=1;align=center;verticalAlign=middle;resizable=0;points=[];" vertex="1" connectable="0" parent="FnDd_VmdXtaVOulnArTb-17">
          <mxGeometry x="-0.0027" y="-2" relative="1" as="geometry">
            <mxPoint as="offset" />
          </mxGeometry>
        </mxCell>
        <mxCell id="FnDd_VmdXtaVOulnArTb-18" value="" style="endArrow=block;dashed=1;endFill=0;endSize=12;html=1;rounded=0;exitX=0.5;exitY=0;exitDx=0;exitDy=0;entryX=0.513;entryY=1.067;entryDx=0;entryDy=0;entryPerimeter=0;" edge="1" parent="1" source="FnDd_VmdXtaVOulnArTb-13" target="FnDd_VmdXtaVOulnArTb-10">
          <mxGeometry width="160" relative="1" as="geometry">
            <mxPoint x="325" y="980" as="sourcePoint" />
            <mxPoint x="527" y="932" as="targetPoint" />
          </mxGeometry>
        </mxCell>
        <mxCell id="FnDd_VmdXtaVOulnArTb-28" value="implements" style="edgeLabel;html=1;align=center;verticalAlign=middle;resizable=0;points=[];" vertex="1" connectable="0" parent="FnDd_VmdXtaVOulnArTb-18">
          <mxGeometry x="-0.2526" relative="1" as="geometry">
            <mxPoint as="offset" />
          </mxGeometry>
        </mxCell>
        <mxCell id="FnDd_VmdXtaVOulnArTb-19" value="" style="endArrow=block;dashed=1;endFill=0;endSize=12;html=1;rounded=0;exitX=0.5;exitY=0;exitDx=0;exitDy=0;entryX=0.532;entryY=1.044;entryDx=0;entryDy=0;entryPerimeter=0;" edge="1" parent="1" source="FnDd_VmdXtaVOulnArTb-15" target="FnDd_VmdXtaVOulnArTb-10">
          <mxGeometry width="160" relative="1" as="geometry">
            <mxPoint x="525" y="980" as="sourcePoint" />
            <mxPoint x="522" y="926" as="targetPoint" />
          </mxGeometry>
        </mxCell>
        <mxCell id="FnDd_VmdXtaVOulnArTb-29" value="implements" style="edgeLabel;html=1;align=center;verticalAlign=middle;resizable=0;points=[];" vertex="1" connectable="0" parent="FnDd_VmdXtaVOulnArTb-19">
          <mxGeometry x="-0.0842" y="-3" relative="1" as="geometry">
            <mxPoint as="offset" />
          </mxGeometry>
        </mxCell>
        <mxCell id="FnDd_VmdXtaVOulnArTb-21" style="edgeStyle=orthogonalEdgeStyle;rounded=0;orthogonalLoop=1;jettySize=auto;html=1;entryX=0;entryY=0.5;entryDx=0;entryDy=0;" edge="1" parent="1" source="FnDd_VmdXtaVOulnArTb-20" target="FnDd_VmdXtaVOulnArTb-9">
          <mxGeometry relative="1" as="geometry" />
        </mxCell>
        <mxCell id="FnDd_VmdXtaVOulnArTb-22" value="uses" style="edgeLabel;html=1;align=center;verticalAlign=middle;resizable=0;points=[];" vertex="1" connectable="0" parent="FnDd_VmdXtaVOulnArTb-21">
          <mxGeometry x="-0.0436" relative="1" as="geometry">
            <mxPoint as="offset" />
          </mxGeometry>
        </mxCell>
        <mxCell id="FnDd_VmdXtaVOulnArTb-20" value="Client" style="swimlane;fontStyle=1;align=center;verticalAlign=top;childLayout=stackLayout;horizontal=1;startSize=26;horizontalStack=0;resizeParent=1;resizeParentMax=0;resizeLast=0;collapsible=1;marginBottom=0;whiteSpace=wrap;html=1;" vertex="1" parent="1">
          <mxGeometry x="265" y="855" width="100" height="60" as="geometry" />
        </mxCell>
      </root>
    </mxGraphModel>
  </diagram>
  <diagram id="vufPPzhLEdbZvo0r94_-" name="Page-4">
    <mxGraphModel grid="1" page="1" gridSize="10" guides="1" tooltips="1" connect="1" arrows="1" fold="1" pageScale="1" pageWidth="850" pageHeight="1100" math="0" shadow="0">
      <root>
        <mxCell id="0" />
        <mxCell id="1" parent="0" />
      </root>
    </mxGraphModel>
  </diagram>
</mxfile>
